<svg xmlns="http://www.w3.org/2000/svg" viewBox="0 0 330.6 319.15"><defs><style>.cls-1{fill:#fff;}</style></defs><g id="Layer_2" data-name="Layer 2"><g id="Layer_2-2" data-name="Layer 2"><path class="cls-1" d="M152.31,319.15S112.14,299.23,75.38,254,17.16,172.6,8.48,144.34s-14.81-55.49,2.9-89.53c0,0,13.1-22.47,32.17-30.13,0,0-35.58,40-23.66,95.83,0,0,10.64,55.66,34.89,89.11S138.27,315.32,152.31,319.15Z"/><path class="cls-1" d="M72.91,213.19S8.82,131,32.57,65.11,116.31,0,123.21,0s44.68,4.6,74.55,44.94c0,0,52.6-39.32,104.17,1s18.89,125.79,13.62,131.91c0,0,26.72-91.06-33.88-119,0,0-48-20.42-94,35.07,0,0-33.42-83.85-107.58-55.49C80.14,38.47,4.23,69.45,72.91,213.19Z"/><path class="cls-1" d="M66.19,185.19s-17.37-52.76,19.4-71.83S149.25,79,154.7,56.85c0,0,.34,30.38-32,49.75S67.21,159,66.19,185.19Z"/><path class="cls-1" d="M117.85,268.09s24.25,39.83,53.36,28.34,52.08-40.6,52.08-40.6S164.59,372.11,117.85,268.09Z"/><path class="cls-1" d="M211.63,271.49s11.58,11,23.66,0,26-41.91,34.56-49.19c9.61-8.17,12.25-11.58,32.25-16.94,0,0-35.06,17.28-41.19,41.11S242,280.85,239,281,228.06,288.17,211.63,271.49Z"/><path class="cls-1" d="M117.85,209c1.27,0,8.59,21.28,21.53,22.64s26.55,15.66,25.7,21.28c0,0,35.91-50.56,68.25-43.92,0,0,9.71,1.53,14.13,8.85,0,0-43.83-2.38-76.89,47.15L167,268.34s-13.4-22.47-29.87-26.68S117.85,209,117.85,209Z"/><path class="cls-1" d="M188.06,213.19s-9.45-14.55-21.19-13.27-20.85-28.17-9.28-36c0,0,6-5.56,8.77-5.17,0,0-3-10.22-.07-12.52s10.66-3,13.47-2.29,2.43-4.85,2.43-4.85,4.17-24.71,18.29-38.15,52.26-23.15,81.71-7.15,38.63,49.53,31,67.91-13.1,44.76-52.93,46.72c0,0,61.44-28.16,26.21-85.87,0,0-28.25-31.57-65.7-16s-35.41,40.63-35.41,40.63l-12.08.52s-6.3,5.78-1.87,11.06c0,0-19.92,16.34-1,34.38,0,0,3.91,4.94,7.83,5.28S188.4,207.49,188.06,213.19Z"/><path class="cls-1" d="M87.55,170.64c1.44.59,7.06-.94,25.27,11.32,0,0,9.37,4.42,13.37,0s4.93-7.66,4.42-11.32-.42-6.3,5.11-5.28,7.23,1,7.66-.85a25.87,25.87,0,0,0,0-5.87s-.43-3.58,5.7-3.32-3.75-9.36-2.72-11.06,6.63.17,8.34-2,6-2.9-.43-17.79.43-11.83.43-11.83l3-1.79s-.76,1.37-4.51-1.87.43,0,.43,0,5.36-12.17,8.17-15,4.77-25.87-1.7-31.74c0,0,2.38,22.38-5.36,31.23,0,0-6.13,11.58-6,14.73,0,0-5.19.42-6.38-3.49a9.83,9.83,0,0,0,5.28,7.49s-.42,10.93,4.76,18.46-3.23,10.73-9.7,9.54c0,0-4.94-.17-.76,6s1.78,8.43.93,8.43-5.19-1.45-6-2.55,1,6.38.34,7.31-4.85,3-8.42,2-1.87,11.32-1.87,11.32-4.17,11.32-17.88,2S87.55,170.64,87.55,170.64Z"/></g></g></svg>